<svg version="1.1" id="Layer_1" xmlns="http://www.w3.org/2000/svg" xmlns:xlink="http://www.w3.org/1999/xlink" x="0px" y="0px"
	 width="100%" viewBox="0 0 253 258" enable-background="new 0 0 253 258" xml:space="preserve">
<path fill="#FEFFFF" opacity="1.000000" stroke="none" 
	d="
M166.000000,259.000000 
	C110.666672,259.000000 55.833340,259.000000 1.000007,259.000000 
	C1.000005,173.000015 1.000005,87.000015 1.000002,1.000019 
	C85.333321,1.000013 169.666641,1.000013 253.999969,1.000006 
	C253.999969,86.999977 253.999969,172.999954 253.999985,258.999969 
	C224.833328,259.000000 195.666672,259.000000 166.000000,259.000000 
M104.102776,37.597248 
	C62.177929,47.078362 33.346722,85.858002 32.729141,123.662766 
	C33.164204,123.806038 33.623264,124.090233 34.081467,124.088860 
	C50.403767,124.039948 66.735542,124.280609 83.045052,123.787560 
	C95.063927,123.424210 105.069183,117.753075 111.714561,107.990150 
	C116.095695,101.553688 118.299759,93.655891 121.710655,86.523384 
	C122.518242,84.834648 124.257378,83.591385 125.568001,82.143196 
	C126.755348,83.529060 128.025131,84.855263 129.091476,86.328705 
	C129.549774,86.961967 129.610672,87.894638 129.810150,88.701653 
	C134.620575,108.162369 146.842117,120.159302 166.291061,124.788246 
	C168.993622,125.431465 172.251144,125.966171 171.640457,129.269257 
	C171.352631,130.826019 168.240219,132.503006 166.145798,132.983200 
	C146.705551,137.440277 131.391205,152.739914 130.749619,170.629044 
	C130.135513,187.751617 130.320923,204.902969 130.185760,222.041901 
	C130.183823,222.288483 130.581955,222.538208 130.975281,223.000076 
	C149.776611,223.000076 168.757156,223.018661 187.737640,222.994873 
	C207.015350,222.970718 218.728088,211.238327 218.759476,191.896927 
	C218.792175,171.741470 218.937424,151.583679 218.674820,131.431580 
	C218.582016,124.309425 218.065140,117.073479 216.662598,110.106758 
	C206.287628,58.571941 156.439774,26.221676 104.102776,37.597248 
M109.502563,147.021790 
	C101.602104,138.580139 91.837303,134.181046 80.313141,133.987686 
	C68.832825,133.795074 57.347679,133.887451 45.864635,133.861572 
	C41.424690,133.851578 36.984703,133.859955 32.258839,133.859955 
	C32.176392,135.735062 32.070732,137.028824 32.069969,138.322632 
	C32.059273,156.463303 31.995245,174.604279 32.081875,192.744537 
	C32.169853,211.167770 44.026749,222.949844 62.418068,222.991562 
	C80.225792,223.031952 98.033676,223.005798 115.841469,222.991043 
	C117.426323,222.989731 119.011070,222.857010 120.691620,222.780991 
	C120.691620,206.736084 120.971680,191.271210 120.594269,175.822388 
	C120.337814,165.324509 117.577721,155.450211 109.502563,147.021790 
M201.593964,39.307716 
	C199.099701,43.765591 199.304474,47.988216 203.320496,51.354733 
	C206.618393,54.119247 210.385727,54.840431 214.249481,52.150948 
	C218.940979,48.885292 219.955933,43.121719 216.595001,38.741669 
	C212.880188,33.900414 207.302994,33.875820 201.593964,39.307716 
z"/>
<path fill="#6070FF" opacity="1.000000" stroke="none" 
	d="
M104.495972,37.457752 
	C156.439774,26.221676 206.287628,58.571941 216.662598,110.106758 
	C218.065140,117.073479 218.582016,124.309425 218.674820,131.431580 
	C218.937424,151.583679 218.792175,171.741470 218.759476,191.896927 
	C218.728088,211.238327 207.015350,222.970718 187.737640,222.994873 
	C168.757156,223.018661 149.776611,223.000076 130.975281,223.000076 
	C130.581955,222.538208 130.183823,222.288483 130.185760,222.041901 
	C130.320923,204.902969 130.135513,187.751617 130.749619,170.629044 
	C131.391205,152.739914 146.705551,137.440277 166.145798,132.983200 
	C168.240219,132.503006 171.352631,130.826019 171.640457,129.269257 
	C172.251144,125.966171 168.993622,125.431465 166.291061,124.788246 
	C146.842117,120.159302 134.620575,108.162369 129.810150,88.701653 
	C129.610672,87.894638 129.549774,86.961967 129.091476,86.328705 
	C128.025131,84.855263 126.755348,83.529060 125.568008,82.143204 
	C124.257378,83.591385 122.518242,84.834648 121.710655,86.523384 
	C118.299759,93.655891 116.095695,101.553688 111.714561,107.990150 
	C105.069183,117.753075 95.063927,123.424210 83.045052,123.787560 
	C66.735542,124.280609 50.403767,124.039948 34.081467,124.088860 
	C33.623264,124.090233 33.164204,123.806038 32.729141,123.662766 
	C33.346722,85.858002 62.177929,47.078362 104.495972,37.457752 
z"/>
<path fill="#6070FF" opacity="1.000000" stroke="none" 
	d="
M109.730232,147.295319 
	C117.577721,155.450211 120.337814,165.324509 120.594269,175.822388 
	C120.971680,191.271210 120.691620,206.736084 120.691620,222.780991 
	C119.011070,222.857010 117.426323,222.989731 115.841469,222.991043 
	C98.033676,223.005798 80.225792,223.031952 62.418068,222.991562 
	C44.026749,222.949844 32.169853,211.167770 32.081875,192.744537 
	C31.995245,174.604279 32.059273,156.463303 32.069969,138.322632 
	C32.070732,137.028824 32.176392,135.735062 32.258839,133.859955 
	C36.984703,133.859955 41.424690,133.851578 45.864635,133.861572 
	C57.347679,133.887451 68.832825,133.795074 80.313141,133.987686 
	C91.837303,134.181046 101.602104,138.580139 109.730232,147.295319 
z"/>
<path fill="#6575FF" opacity="1.000000" stroke="none" 
	d="
M201.817963,38.992599 
	C207.302994,33.875820 212.880188,33.900414 216.595001,38.741669 
	C219.955933,43.121719 218.940979,48.885292 214.249481,52.150948 
	C210.385727,54.840431 206.618393,54.119247 203.320496,51.354733 
	C199.304474,47.988216 199.099701,43.765591 201.817963,38.992599 
z"/>
</svg>